<?xml version="1.0" encoding="UTF-8" standalone="no"?>
<!DOCTYPE svg PUBLIC "-//W3C//DTD SVG 1.1//EN" "http://www.w3.org/Graphics/SVG/1.1/DTD/svg11.dtd">
<!-- Created with Vectornator (http://vectornator.io/) -->
<svg height="100%" stroke-miterlimit="10" style="fill-rule:nonzero;clip-rule:evenodd;stroke-linecap:round;stroke-linejoin:round;" version="1.1" viewBox="0 0 1024 1024" width="100%" xml:space="preserve" xmlns="http://www.w3.org/2000/svg" xmlns:vectornator="http://vectornator.io" xmlns:xlink="http://www.w3.org/1999/xlink">
<defs/>
<g id="Layer-1" vectornator:layerName="Layer 1">
<path d="M304.954 147.22L739.298 147.22C760.223 147.22 777.186 164.183 777.186 185.108L777.186 815.365C777.186 836.29 760.223 853.253 739.298 853.253L304.954 853.253C284.029 853.253 267.066 836.29 267.066 815.365L267.066 185.108C267.066 164.183 284.029 147.22 304.954 147.22Z" fill="#ffffff" fill-rule="nonzero" opacity="1" stroke="#000000" stroke-linecap="butt" stroke-linejoin="miter" stroke-width="10.3"/>
<path d="M459.425 246.064L692.138 246.064C703.246 246.064 712.25 255.068 712.25 266.176L712.25 311.882C712.25 322.989 703.246 331.994 692.138 331.994L459.425 331.994C448.318 331.994 439.313 322.989 439.313 311.882L439.313 266.176C439.313 255.068 448.318 246.064 459.425 246.064Z" fill="#a8a8a8" fill-rule="nonzero" opacity="1" stroke="none"/>
<path d="M459.425 457.271L692.138 457.271C703.246 457.271 712.25 466.276 712.25 477.383L712.25 523.09C712.25 534.197 703.246 543.202 692.138 543.202L459.425 543.202C448.318 543.202 439.313 534.197 439.313 523.09L439.313 477.383C439.313 466.276 448.318 457.271 459.425 457.271Z" fill="#ffa500" fill-rule="nonzero" opacity="1" stroke="none"/>
<path d="M459.425 677.57L692.138 677.57C703.246 677.57 712.25 686.574 712.25 697.682L712.25 743.388C712.25 754.495 703.246 763.5 692.138 763.5L459.425 763.5C448.318 763.5 439.313 754.495 439.313 743.388L439.313 697.682C439.313 686.574 448.318 677.57 459.425 677.57Z" fill="#a8a8a8" fill-rule="nonzero" opacity="1" stroke="none"/>
<path d="M307.795 289.029C307.795 263.624 328.389 243.029 353.794 243.029C379.199 243.029 399.793 263.624 399.793 289.029C399.793 314.433 379.199 335.028 353.794 335.028C328.389 335.028 307.795 314.433 307.795 289.029Z" fill="#a8a8a8" fill-rule="nonzero" opacity="1" stroke="none"/>
<path d="M307.795 720.535C307.795 695.13 328.389 674.536 353.794 674.536C379.199 674.536 399.793 695.13 399.793 720.535C399.793 745.939 379.199 766.534 353.794 766.534C328.389 766.534 307.795 745.939 307.795 720.535Z" fill="#a8a8a8" fill-rule="nonzero" opacity="1" stroke="none"/>
<path d="M393.202 438.44L346.861 491.967C344.021 495.247 339.143 495.511 335.966 492.556L320.722 478.381C317.545 475.426 312.572 475.606 309.616 478.782L299.29 489.875C296.334 493.05 296.512 498.021 299.688 500.977L340.03 538.523C343.206 541.479 348.098 541.228 350.956 537.964L418.732 460.536C421.59 457.272 421.247 452.323 417.966 449.484L404.284 437.641C401.003 434.802 396.042 435.159 393.202 438.44Z" fill="#ffa500" fill-rule="nonzero" opacity="1" stroke="none"/>
</g>
</svg>
